<svg width="64" height="64" viewBox="0 0 64 64" fill="none" xmlns="http://www.w3.org/2000/svg">
  <defs>
    <filter id="glow" x="-50%" y="-50%" width="200%" height="200%">
      <feGaussianBlur stdDeviation="1.6" result="b"/>
      <feMerge><feMergeNode in="b"/><feMergeNode in="SourceGraphic"/></feMerge>
    </filter>
    <linearGradient id="sweep" x1="32" y1="32" x2="52" y2="14" gradientUnits="userSpaceOnUse">
      <stop offset="0" stop-color="#2DE37B" stop-opacity="0"/>
      <stop offset="1" stop-color="#2DE37B" stop-opacity=".45"/>
    </linearGradient>
  </defs>
  <path d="M32 32 L46.8 9.6 A27 27 0 0 1 56.6 22.4 Z" fill="url(#sweep)"/>
  <g stroke="#3A4A3C" stroke-width="7" stroke-linecap="round" fill="none">
    <path d="M53.52 27.43 A22 22 0 0 1 46.72 48.35"/>
    <path d="M43.00 51.05 A22 22 0 0 1 21.00 51.05"/>
    <path d="M17.28 48.35 A22 22 0 0 1 10.48 27.43"/>
    <path d="M11.90 23.05 A22 22 0 0 1 29.70 10.12"/>
  </g>
  <path d="M34.30 10.12 A22 22 0 0 1 52.10 23.05" stroke="#2DE37B" stroke-width="7" stroke-linecap="round" fill="none" filter="url(#glow)"/>
  <circle cx="32" cy="32" r="3.4" fill="#2DE37B" filter="url(#glow)"/>
</svg>
